<svg height="819" width="606" xmlns="http://www.w3.org/2000/svg"><radialGradient id="a" cx="14.848%" cy="14.83%" gradientTransform="matrix(.6287 .5754 -.77765 .46519 .17 -.006)" r="135.444%"><stop offset="0" stop-color="#ffa400"/><stop offset="1" stop-color="#009ffd"/></radialGradient><mask id="b" fill="#fff"><path d="M0 0h606v819H0z" fill-rule="evenodd"/></mask><path d="M567.696 819c-1.293 0-2.576-.062-3.88-.197l-1.032-.103s-1.325.03-1.45.03c-2.034 0-3.38-.072-4.715-.227-20.203-2.31-34.826-19.892-33.304-40.012l.042-1.14V300.21c.344-59.479-24.699-116.76-68.683-157.093-21.163-19.167-45.257-34.448-71.698-45.461-26.326-10.858-54.112-16.349-82.66-16.349-28.527 0-56.375 5.512-82.733 16.37-26.138 10.722-49.637 26.128-69.82 45.771-20.412 19.996-36.59 43.337-48.104 69.424-12.193 27.6-18.222 56.899-17.92 87.089v481.1c-1.418 20.98-18.93 37.597-39.885 37.597l-4.14.083c-1.43 0-2.89-.073-4.319-.238-10.003-1.15-18.962-6.102-25.23-13.945C2.24 797.15-.619 787.888.111 778.49l.042-1.15V300.106c-.365-41.441 7.791-81.753 24.24-119.93 15.582-35.92 37.851-67.954 66.159-95.18 28.245-26.989 60.965-48.103 97.23-62.721C224.207 7.49 262.622 0 301.986 0h1.085c39.708 0 78.143 7.584 114.368 22.534 35.817 14.732 68.12 35.743 96.02 62.44 28.423 27.176 51.036 59.096 67.234 94.85 17.106 38.135 25.596 78.665 25.21 120.417V777.58c.24 4.092.032 7.252-.552 10.36-3.38 17.996-19.213 31.06-37.654 31.06" fill="url(#a)" fill-rule="evenodd" mask="url(#b)" opacity=".2"/></svg>